<svg width="51" height="46" viewBox="0 0 51 46" fill="none" xmlns="http://www.w3.org/2000/svg">
    <path
        d="M25.4042 45.9905C24.6782 45.9905 23.7656 45.9282 22.6663 45.8038C21.5878 45.6793 20.3952 45.4512 19.0885 45.1193C17.8025 44.7875 16.4544 44.3519 15.044 43.8126C13.6336 43.2734 12.2439 42.5889 10.875 41.7593C9.52681 40.9089 8.24086 39.9133 7.01713 38.7725C5.7934 37.611 4.71486 36.2732 3.78151 34.7591C2.8689 33.2243 2.13259 31.482 1.57258 29.5324C1.03331 27.5827 0.763672 25.3945 0.763672 22.9678C0.763672 20.8107 1.05405 18.747 1.6348 16.7765C2.23629 14.8061 3.08668 12.9705 4.18596 11.2698C5.28524 9.56899 6.61268 8.02378 8.16826 6.63412C9.74459 5.24446 11.4972 4.06222 13.4261 3.08739C15.3551 2.11255 17.4499 1.3555 19.7107 0.816229C21.9715 0.276959 24.3464 0.00732422 26.8353 0.00732422C28.9924 0.00732422 31.0769 0.276959 33.0888 0.816229C35.1214 1.33476 37.0192 2.08144 38.7822 3.05627C40.5452 4.01037 42.1526 5.1615 43.6045 6.50968C45.0771 7.85785 46.3424 9.36158 47.4002 11.0209C48.4579 12.6802 49.2772 14.4743 49.858 16.4032C50.4387 18.3114 50.7291 20.3025 50.7291 22.3767C50.7291 24.3263 50.4491 26.2656 49.8891 28.1945C49.3291 30.1027 48.5202 31.9383 47.4624 33.7013C46.4046 35.4436 45.1186 37.0614 43.6045 38.5548C42.1112 40.0481 40.4311 41.3548 38.5644 42.4748C36.6977 43.5741 34.6547 44.4349 32.4354 45.0571C30.2161 45.6793 27.8724 45.9905 25.4042 45.9905ZM9.91052 21.8166C9.91052 23.4967 10.0764 25.1767 10.4083 26.8567C10.7609 28.5368 11.2691 30.1546 11.9328 31.7102C12.5965 33.2658 13.4158 34.728 14.3906 36.0969C15.3654 37.4451 16.4751 38.6273 17.7196 39.6437C18.964 40.6392 20.3433 41.4274 21.8574 42.0082C23.3923 42.5682 25.0516 42.8482 26.8353 42.8482C29.345 42.8482 31.5228 42.3193 33.3688 41.2615C35.2147 40.1829 36.7392 38.7622 37.9422 36.9992C39.1659 35.2362 40.0682 33.2139 40.6489 30.9324C41.2504 28.6301 41.5511 26.2553 41.5511 23.8078C41.5511 22.0241 41.3748 20.2818 41.0222 18.581C40.6904 16.8595 40.1926 15.2313 39.5289 13.6965C38.8859 12.1409 38.077 10.7201 37.1022 9.43418C36.1481 8.12748 35.0384 6.99709 33.7732 6.043C32.5287 5.08891 31.1391 4.3526 29.6042 3.83407C28.0901 3.2948 26.4412 3.02516 24.6575 3.02516C23.0604 3.02516 21.5878 3.27406 20.2396 3.77184C18.8914 4.26963 17.6677 4.95409 16.5684 5.82522C15.4899 6.6756 14.5358 7.70229 13.7062 8.90528C12.8765 10.0875 12.1817 11.3735 11.6217 12.7631C11.0617 14.1528 10.6365 15.6254 10.3461 17.181C10.0557 18.7158 9.91052 20.2611 9.91052 21.8166Z"
        fill="#E01515" />
</svg>