<svg width="200" height="49" viewBox="0 0 200 49" fill="none" xmlns="http://www.w3.org/2000/svg">
    <path
        d="M15.7287 35.0318C15.7287 35.0215 15.7339 35.0007 15.7443 34.9696C15.7547 34.9281 15.791 34.9074 15.8532 34.9074C15.9154 34.9074 16.0139 34.897 16.1487 34.8763C16.2836 34.8555 16.4236 34.8348 16.5687 34.8141C16.7139 34.7933 16.8487 34.7726 16.9732 34.7518C17.0976 34.7207 17.1858 34.7 17.2376 34.6896C17.8288 34.5548 18.2384 34.337 18.4666 34.0363C18.7051 33.7252 18.8243 33.3414 18.8243 32.8851V17.0804C18.8243 16.5619 18.7155 16.1522 18.4977 15.8515C18.2799 15.5507 18.0258 15.3278 17.7354 15.1826C17.4554 15.027 17.1806 14.9337 16.911 14.9026C16.6517 14.8611 16.4754 14.8403 16.3821 14.8403H15.791C15.7391 14.8403 15.7028 14.8248 15.6821 14.7937C15.6717 14.7626 15.6665 14.7366 15.6665 14.7159V14.0314C15.6665 14.0107 15.6717 13.9899 15.6821 13.9692C15.6924 13.9381 15.7287 13.9174 15.791 13.907C15.8013 13.907 15.8221 13.907 15.8532 13.907C15.8947 13.907 15.9724 13.907 16.0865 13.907C16.2006 13.8966 16.3665 13.8914 16.5843 13.8914C16.8021 13.8811 17.108 13.8707 17.5021 13.8603C18.0725 13.8499 18.6792 13.8344 19.3221 13.8136C19.9755 13.7929 20.634 13.7722 21.2977 13.7514C21.9614 13.7307 22.6148 13.7151 23.2578 13.7048C23.9111 13.684 24.523 13.6736 25.0934 13.6736H26.6645C27.4838 13.6736 28.3186 13.8136 29.169 14.0937C30.0194 14.3737 30.7868 14.7885 31.4713 15.3381C32.1661 15.8774 32.7313 16.5515 33.1668 17.3604C33.6128 18.1693 33.8358 19.1026 33.8358 20.1604C33.8358 20.8449 33.7424 21.4568 33.5557 21.996C33.3691 22.5249 33.1098 22.9968 32.778 23.4116C32.4565 23.8161 32.0676 24.1739 31.6113 24.485C31.1653 24.7961 30.6779 25.0709 30.149 25.3094L34.8624 32.7762C35.2669 33.4192 35.7388 34.0052 36.278 34.5341C36.8173 35.0526 37.4447 35.4156 38.1603 35.623C38.2432 35.6437 38.2899 35.6748 38.3003 35.7163C38.321 35.7474 38.3314 35.7889 38.3314 35.8407C38.3314 35.9963 38.2899 36.1 38.2069 36.1519C38.124 36.2037 37.9944 36.2296 37.8181 36.2296C37.3825 36.2296 36.8847 36.1985 36.3247 36.1363C35.775 36.0845 35.2202 35.9911 34.6602 35.8563C34.1002 35.7319 33.5661 35.5659 33.058 35.3585C32.5602 35.1511 32.1402 34.8918 31.7979 34.5807C31.4661 34.2903 31.129 33.9222 30.7868 33.4763C30.4446 33.0303 30.0972 32.5533 29.7446 32.0451C29.4023 31.5266 29.0601 30.9925 28.7179 30.4429C28.386 29.8829 28.0593 29.3384 27.7379 28.8095C27.4267 28.2806 27.126 27.788 26.8356 27.3317C26.5452 26.8754 26.2808 26.4865 26.0423 26.165L23.6155 25.9939C23.6052 25.9939 23.5637 25.9939 23.4911 25.9939C23.4185 25.9939 23.3667 26.0043 23.3355 26.025C23.3044 26.0457 23.2837 26.0665 23.2733 26.0872C23.263 26.108 23.2578 26.1494 23.2578 26.2117V32.8385C23.2578 33.1185 23.2941 33.3622 23.3667 33.5696C23.4393 33.777 23.5585 33.9585 23.7244 34.114C23.9007 34.2592 24.1237 34.3785 24.3933 34.4718C24.6733 34.5652 25.0104 34.6378 25.4045 34.6896C25.4667 34.7 25.5548 34.7155 25.6689 34.7363C25.7934 34.757 25.923 34.783 26.0578 34.8141C26.203 34.8348 26.343 34.8555 26.4778 34.8763C26.6126 34.897 26.7267 34.9074 26.8201 34.9074C26.8823 34.9074 26.9186 34.923 26.9289 34.9541C26.9393 34.9852 26.9445 35.0111 26.9445 35.0318V35.7163C26.9445 35.737 26.9341 35.763 26.9134 35.7941C26.903 35.8252 26.8719 35.8407 26.8201 35.8407H15.8532C15.8013 35.8407 15.765 35.7682 15.7443 35.623C15.7339 35.4778 15.7287 35.343 15.7287 35.2185V35.0318ZM23.2889 24.4383C23.2992 24.5213 23.32 24.599 23.3511 24.6716C23.3926 24.7339 23.4704 24.7702 23.5844 24.7805C23.6778 24.7909 23.8178 24.8116 24.0044 24.8428C24.1911 24.8635 24.4504 24.8739 24.7822 24.8739C25.6949 24.8739 26.4467 24.7339 27.0378 24.4539C27.629 24.1739 28.0956 23.8005 28.4379 23.3338C28.7801 22.8568 29.0134 22.3123 29.1379 21.7005C29.2727 21.0886 29.3401 20.4508 29.3401 19.7871C29.3401 19.0923 29.2312 18.4337 29.0134 17.8115C28.7957 17.1893 28.4897 16.65 28.0956 16.1937C27.7119 15.7374 27.2453 15.3744 26.6956 15.1048C26.1563 14.8351 25.56 14.7003 24.9067 14.7003C24.7615 14.7003 24.6474 14.7055 24.5645 14.7159C24.4815 14.7159 24.3985 14.7211 24.3156 14.7314C24.243 14.7314 24.1548 14.7366 24.0511 14.747C23.9578 14.747 23.823 14.7522 23.6467 14.7626C23.5844 14.7626 23.5015 14.7781 23.3978 14.8092C23.3044 14.83 23.2578 14.8974 23.2578 15.0114V23.9716L23.2889 24.4383Z"
        fill="white" />
    <path
        d="M97.6596 35.0318C97.6596 35.0111 97.6648 34.9852 97.6752 34.9541C97.6959 34.923 97.7322 34.9074 97.784 34.9074C98.4685 34.9074 98.9974 34.8296 99.3707 34.6741C99.7545 34.5081 100.034 34.2852 100.211 34.0052C100.397 33.7148 100.512 33.3726 100.553 32.9785C100.594 32.5844 100.626 32.1592 100.646 31.7029C100.709 30.3651 100.781 29.0688 100.864 27.8139C100.957 26.5487 101.046 25.3094 101.129 24.0961C101.212 22.8723 101.284 21.6642 101.346 20.4716C101.409 19.2789 101.44 18.0811 101.44 16.8782V16.3026C101.44 16.0641 101.362 15.8567 101.206 15.6804C101.051 15.4937 100.864 15.3381 100.646 15.2137C100.439 15.0892 100.226 14.9959 100.009 14.9337C99.7907 14.8714 99.6196 14.8403 99.4952 14.8403C99.4122 14.8403 99.3707 14.7989 99.3707 14.7159V14.0314C99.3707 14.0107 99.3759 13.9848 99.3863 13.9537C99.3967 13.9225 99.433 13.907 99.4952 13.907H105.002C105.116 13.9277 105.209 13.9692 105.282 14.0314C105.355 14.0833 105.422 14.1559 105.484 14.2492L112.251 29.3384C112.324 29.5147 112.417 29.6028 112.531 29.6028C112.645 29.6028 112.728 29.5769 112.78 29.5251C112.832 29.4732 112.873 29.4058 112.904 29.3228L119.593 14.5292C119.697 14.3322 119.801 14.1818 119.904 14.0781C120.008 13.964 120.112 13.907 120.216 13.907H125.691C125.753 13.907 125.79 13.9225 125.8 13.9537C125.811 13.9848 125.816 14.0107 125.816 14.0314V14.7159C125.816 14.7366 125.805 14.7626 125.785 14.7937C125.774 14.8248 125.743 14.8403 125.691 14.8403C125.671 14.8403 125.546 14.8611 125.318 14.9026C125.1 14.944 124.856 15.027 124.587 15.1515C124.328 15.2655 124.089 15.4366 123.871 15.6648C123.653 15.8826 123.545 16.173 123.545 16.5359L124.447 33.1029C124.457 33.4037 124.535 33.6577 124.68 33.8652C124.836 34.0726 125.022 34.2437 125.24 34.3785C125.458 34.5133 125.686 34.617 125.925 34.6896C126.173 34.7518 126.402 34.8037 126.609 34.8452C126.827 34.8763 127.008 34.897 127.154 34.9074C127.309 34.9074 127.392 34.9074 127.402 34.9074C127.454 34.9074 127.485 34.923 127.496 34.9541C127.516 34.9852 127.527 35.0111 127.527 35.0318V35.7163C127.527 35.737 127.516 35.763 127.496 35.7941C127.485 35.8252 127.454 35.8407 127.402 35.8407H117.167C117.084 35.8407 117.042 35.7993 117.042 35.7163V35.0318C117.042 34.9489 117.084 34.9074 117.167 34.9074C117.416 34.9074 117.696 34.897 118.007 34.8763C118.328 34.8452 118.634 34.783 118.924 34.6896C119.215 34.5963 119.459 34.4615 119.656 34.2852C119.853 34.0985 119.951 33.8548 119.951 33.554L119.236 20.8449C119.225 20.7412 119.199 20.6893 119.158 20.6893C119.116 20.6893 119.075 20.736 119.033 20.8293L112.22 35.5763C112.168 35.6904 112.095 35.763 112.002 35.7941C111.919 35.8252 111.769 35.8407 111.551 35.8407C111.178 35.8407 110.898 35.8304 110.711 35.8096C110.535 35.7889 110.415 35.7059 110.353 35.5607L103.726 20.9538C103.695 20.8812 103.669 20.8293 103.649 20.7982C103.638 20.7567 103.612 20.736 103.571 20.736C103.498 20.736 103.462 20.8034 103.462 20.9382C103.462 21.2494 103.446 21.7057 103.415 22.3071C103.384 22.9086 103.343 23.5879 103.291 24.345C103.239 25.0916 103.187 25.885 103.135 26.725C103.083 27.565 103.032 28.3791 102.98 29.1673C102.928 29.9554 102.886 30.6918 102.855 31.3762C102.824 32.0503 102.809 32.6051 102.809 33.0407V33.6785C102.85 33.8755 102.954 34.0518 103.12 34.2074C103.286 34.3629 103.493 34.4926 103.742 34.5963C103.991 34.7 104.266 34.7778 104.566 34.8296C104.867 34.8815 105.183 34.9074 105.515 34.9074C105.567 34.9074 105.593 34.923 105.593 34.9541C105.603 34.9852 105.609 35.0111 105.609 35.0318V35.7163C105.609 35.7993 105.578 35.8407 105.515 35.8407H97.784C97.7011 35.8407 97.6596 35.7993 97.6596 35.7163V35.0318Z"
        fill="white" />
    <path
        d="M139.566 35.8407C139.39 35.8407 139.255 35.8356 139.161 35.8252C139.078 35.8148 139.011 35.7889 138.959 35.7474C138.918 35.7059 138.892 35.6437 138.881 35.5607C138.881 35.4778 138.881 35.3637 138.881 35.2185C138.881 35.0422 138.944 34.8711 139.068 34.7052C139.193 34.5392 139.343 34.3526 139.519 34.1452C140.017 33.554 140.556 32.9629 141.137 32.3718C141.718 31.7807 142.304 31.1895 142.895 30.5984C143.683 29.8103 144.44 29.0169 145.166 28.2184C145.892 27.4198 146.53 26.6265 147.079 25.8383C147.639 25.0502 148.08 24.2724 148.402 23.505C148.733 22.7272 148.899 21.9649 148.899 21.2182C148.899 20.6582 148.796 20.1086 148.588 19.5693C148.391 19.0197 148.122 18.5323 147.779 18.1071C147.437 17.6819 147.038 17.3396 146.582 17.0804C146.136 16.8211 145.664 16.6915 145.166 16.6915C144.627 16.6915 144.119 16.7952 143.641 17.0026C143.175 17.21 142.75 17.49 142.366 17.8426C141.982 18.1848 141.656 18.5841 141.386 19.0404C141.127 19.4864 140.94 19.9478 140.826 20.4249C140.795 20.539 140.769 20.6479 140.748 20.7516C140.727 20.8449 140.691 20.9279 140.639 21.0005C140.587 21.0627 140.504 21.1145 140.39 21.156C140.276 21.1975 140.121 21.2182 139.924 21.2182H139.784C139.638 21.2182 139.524 21.2027 139.441 21.1716C139.369 21.1301 139.333 21.0368 139.333 20.8916C139.333 20.8397 139.353 20.6479 139.395 20.316C139.447 19.9841 139.53 19.6004 139.644 19.1649C139.768 18.7293 139.929 18.2834 140.126 17.8271C140.333 17.3604 140.593 16.9715 140.904 16.6604H140.888C141.313 16.2248 141.728 15.8618 142.133 15.5715C142.547 15.2811 142.962 15.0477 143.377 14.8714C143.802 14.6951 144.233 14.5707 144.668 14.4981C145.114 14.4151 145.586 14.3737 146.084 14.3737C147.09 14.3737 148.002 14.5344 148.822 14.8559C149.651 15.1774 150.356 15.6233 150.937 16.1937C151.528 16.7537 151.979 17.4174 152.291 18.1848C152.612 18.9523 152.773 19.7819 152.773 20.6738C152.773 21.3168 152.628 21.9597 152.337 22.6027C152.047 23.2353 151.637 23.8835 151.108 24.5472C150.59 25.2109 149.962 25.8902 149.226 26.585C148.5 27.2695 147.696 27.9902 146.815 28.7473C146.722 28.8199 146.571 28.9547 146.364 29.1517C146.156 29.3488 145.913 29.5821 145.633 29.8517C145.363 30.111 145.073 30.3962 144.762 30.7073C144.45 31.0081 144.15 31.3036 143.859 31.594C143.579 31.8844 143.32 32.154 143.081 32.4029C142.843 32.6518 142.661 32.854 142.537 33.0096H150.984C151.212 33.0096 151.399 32.9785 151.544 32.9162C151.689 32.8437 151.813 32.7244 151.917 32.5585C152.031 32.3822 152.135 32.1488 152.228 31.8584C152.322 31.5681 152.425 31.2051 152.539 30.7695H153.551L152.835 35.1563C152.804 35.3015 152.716 35.4519 152.571 35.6074C152.425 35.763 152.171 35.8407 151.808 35.8407H139.566Z"
        fill="white" />
    <path
        d="M161.592 36.2452C161.271 36.2452 160.903 36.2348 160.488 36.2141C160.073 36.2037 159.648 36.1674 159.212 36.1052C158.777 36.043 158.352 35.9548 157.937 35.8407C157.522 35.737 157.149 35.597 156.817 35.4207C156.495 35.2341 156.236 35.0059 156.039 34.7363C155.842 34.4666 155.743 34.1452 155.743 33.7718C155.743 33.5437 155.795 33.3414 155.899 33.1651C156.003 32.9888 156.143 32.8437 156.319 32.7296C156.495 32.6155 156.692 32.5274 156.91 32.4651C157.138 32.4029 157.377 32.3718 157.626 32.3718C157.916 32.3718 158.186 32.434 158.434 32.5585C158.694 32.6829 158.937 32.8385 159.166 33.0251C159.404 33.2014 159.637 33.3985 159.866 33.6163C160.094 33.8237 160.332 34.0207 160.581 34.2074C160.83 34.3837 161.095 34.5341 161.375 34.6585C161.655 34.783 161.96 34.8452 162.292 34.8452C162.904 34.7933 163.443 34.5807 163.91 34.2074C164.377 33.834 164.766 33.3726 165.077 32.8229C165.388 32.2629 165.621 31.6562 165.777 31.0029C165.932 30.3392 166.01 29.6962 166.01 29.0739C166.01 28.3065 165.922 27.6532 165.746 27.1139C165.569 26.5746 165.346 26.1339 165.077 25.7917C164.818 25.4494 164.527 25.2005 164.206 25.045C163.884 24.8791 163.578 24.7961 163.288 24.7961C163.049 24.7961 162.842 24.822 162.666 24.8739C162.489 24.9257 162.334 24.9879 162.199 25.0605C162.064 25.1228 161.95 25.1954 161.857 25.2783C161.763 25.3509 161.675 25.4131 161.592 25.465C161.52 25.5168 161.442 25.5583 161.359 25.5894C161.276 25.6205 161.146 25.6361 160.97 25.6361C160.783 25.6361 160.633 25.5687 160.519 25.4339C160.415 25.2887 160.363 25.1591 160.363 25.045C160.363 24.9828 160.426 24.8791 160.55 24.7339C160.685 24.5783 160.809 24.4487 160.923 24.345C161.297 24.0131 161.686 23.6398 162.09 23.2249C162.505 22.8101 162.878 22.3746 163.21 21.9183C163.542 21.4619 163.817 20.9953 164.035 20.5182C164.252 20.0412 164.361 19.5693 164.361 19.1026C164.361 18.75 164.289 18.413 164.143 18.0915C164.009 17.7597 163.822 17.4641 163.583 17.2048C163.355 16.9456 163.091 16.7382 162.79 16.5826C162.5 16.427 162.199 16.3493 161.888 16.3493C161.297 16.3493 160.778 16.453 160.332 16.6604C159.886 16.8574 159.503 17.1063 159.181 17.4071C158.86 17.7078 158.59 18.0293 158.372 18.3715C158.154 18.7034 157.973 19.0041 157.828 19.2738C157.766 19.3878 157.693 19.4604 157.61 19.4915C157.537 19.5226 157.439 19.5382 157.314 19.5382C157.263 19.5382 157.195 19.5278 157.112 19.5071C157.04 19.4864 156.967 19.4552 156.894 19.4138C156.822 19.3723 156.76 19.3204 156.708 19.2582C156.656 19.196 156.63 19.1234 156.63 19.0404C156.63 19.0508 156.635 19.0352 156.646 18.9938C156.666 18.9523 156.687 18.9056 156.708 18.8537C156.729 18.8019 156.754 18.7397 156.786 18.6671C157.045 18.0448 157.382 17.4693 157.797 16.9404C158.222 16.4115 158.689 15.9604 159.197 15.587C159.705 15.2033 160.244 14.9077 160.815 14.7003C161.385 14.4825 161.955 14.3737 162.526 14.3737C163.345 14.3737 164.086 14.4566 164.75 14.6226C165.414 14.7885 165.984 15.0322 166.461 15.3537C166.938 15.6752 167.307 16.0744 167.566 16.5515C167.825 17.0182 167.955 17.5574 167.955 18.1693C167.955 18.636 167.856 19.0819 167.659 19.5071C167.472 19.9323 167.224 20.3419 166.912 20.736C166.612 21.1197 166.264 21.4827 165.87 21.8249C165.486 22.1671 165.092 22.4783 164.688 22.7583C165.601 22.8516 166.384 23.0694 167.037 23.4116C167.69 23.7538 168.224 24.1842 168.639 24.7028C169.064 25.2109 169.375 25.7865 169.572 26.4295C169.77 27.0724 169.868 27.7361 169.868 28.4206C169.868 29.188 169.744 29.9192 169.495 30.614C169.246 31.2984 168.914 31.931 168.499 32.5118C168.084 33.0822 167.597 33.6007 167.037 34.0674C166.487 34.5237 165.906 34.9178 165.295 35.2496C164.683 35.5711 164.055 35.8148 163.412 35.9808C162.78 36.1571 162.173 36.2452 161.592 36.2452Z"
        fill="white" />
    <path
        d="M176.572 35.6852C176.79 35.177 177.065 34.5496 177.396 33.8029C177.739 33.0563 178.112 32.2422 178.516 31.3607C178.921 30.4792 179.341 29.5562 179.776 28.5917C180.222 27.6273 180.658 26.6783 181.083 25.745C181.508 24.8013 181.918 23.899 182.312 23.0383C182.706 22.1775 183.054 21.4101 183.354 20.736C183.655 20.0515 183.894 19.4915 184.07 19.056C184.257 18.61 184.36 18.3352 184.381 18.2315H176.028C175.748 18.2315 175.53 18.2989 175.374 18.4337C175.219 18.5582 175.115 18.693 175.063 18.8382L174.239 20.8605C174.166 21.0368 174.093 21.156 174.021 21.2182C173.948 21.2805 173.793 21.3116 173.554 21.3116C173.295 21.3116 173.113 21.2649 173.01 21.1716C172.906 21.0782 172.865 20.9849 172.885 20.8916L173.819 15.5248C173.829 15.4937 173.845 15.447 173.865 15.3848C173.896 15.3226 173.943 15.2655 174.005 15.2137C174.067 15.1515 174.15 15.0996 174.254 15.0581C174.358 15.0166 174.493 14.9959 174.659 14.9959H186.466C186.735 14.9959 186.974 15.0426 187.181 15.1359C187.399 15.2292 187.508 15.4107 187.508 15.6804C187.508 15.8359 187.482 16.0589 187.43 16.3493C187.388 16.6396 187.311 16.9093 187.197 17.1582L178.594 36.2452H176.572V35.6852Z"
        fill="white" />
    <path
        d="M53.2021 36.2452C52.8391 36.2452 52.3828 36.2141 51.8332 36.1518C51.2939 36.0896 50.6976 35.9755 50.0442 35.8096C49.4013 35.6437 48.7272 35.4259 48.022 35.1563C47.3168 34.8866 46.6219 34.5444 45.9375 34.1296C45.2634 33.7044 44.6204 33.2066 44.0086 32.6362C43.3967 32.0555 42.8574 31.3866 42.3908 30.6295C41.9344 29.8621 41.5663 28.9909 41.2863 28.0161C41.0167 27.0413 40.8818 25.9472 40.8818 24.7338C40.8818 23.6553 41.027 22.6234 41.3174 21.6382C41.6181 20.653 42.0433 19.7352 42.593 18.8848C43.1426 18.0344 43.8063 17.2618 44.5841 16.567C45.3723 15.8722 46.2486 15.281 47.2131 14.7936C48.1775 14.3062 49.225 13.9277 50.3554 13.6581C51.4857 13.3884 52.6732 13.2536 53.9176 13.2536C54.9962 13.2536 56.0384 13.3884 57.0444 13.6581C58.0607 13.9173 59.0096 14.2907 59.8911 14.7781C60.7726 15.2551 61.5763 15.8307 62.3023 16.5048C63.0386 17.1789 63.6712 17.9307 64.2001 18.7604C64.729 19.59 65.1386 20.4871 65.429 21.4515C65.7194 22.4056 65.8646 23.4012 65.8646 24.4383C65.8646 25.4131 65.7245 26.3827 65.4445 27.3472C65.1645 28.3013 64.7601 29.2191 64.2312 30.1006C63.7023 30.9717 63.0593 31.7806 62.3023 32.5273C61.5556 33.274 60.7156 33.9273 59.7822 34.4874C58.8489 35.037 57.8274 35.4674 56.7177 35.7785C55.6081 36.0896 54.4362 36.2452 53.2021 36.2452ZM45.4553 24.1583C45.4553 24.9983 45.5382 25.8383 45.7042 26.6783C45.8805 27.5183 46.1345 28.3272 46.4664 29.105C46.7982 29.8828 47.2079 30.6139 47.6953 31.2984C48.1827 31.9725 48.7375 32.5636 49.3598 33.0718C49.982 33.5696 50.6717 33.9636 51.4287 34.254C52.1961 34.534 53.0258 34.674 53.9176 34.674C55.1725 34.674 56.2614 34.4096 57.1844 33.8807C58.1074 33.3414 58.8696 32.631 59.4711 31.7495C60.083 30.868 60.5341 29.8569 60.8245 28.7161C61.1252 27.565 61.2756 26.3776 61.2756 25.1538C61.2756 24.262 61.1874 23.3908 61.0111 22.5405C60.8452 21.6797 60.5963 20.8656 60.2644 20.0982C59.943 19.3204 59.5385 18.61 59.0511 17.967C58.574 17.3137 58.0192 16.7485 57.3866 16.2714C56.7644 15.7944 56.0695 15.4262 55.3021 15.167C54.5451 14.8973 53.7206 14.7625 52.8287 14.7625C52.0302 14.7625 51.2939 14.887 50.6198 15.1359C49.9457 15.3848 49.3339 15.727 48.7842 16.1625C48.2449 16.5877 47.7679 17.1011 47.3531 17.7026C46.9383 18.2937 46.5908 18.9367 46.3108 19.6315C46.0308 20.3263 45.8182 21.0626 45.673 21.8404C45.5279 22.6079 45.4553 23.3805 45.4553 24.1583Z"
        fill="#E01515" />
    <path
        d="M82.2443 36.2452C81.8813 36.2452 81.425 36.2141 80.8753 36.1518C80.3361 36.0896 79.7398 35.9755 79.0864 35.8096C78.4434 35.6437 77.7694 35.4259 77.0642 35.1563C76.359 34.8866 75.6641 34.5444 74.9797 34.1296C74.3056 33.7044 73.6626 33.2066 73.0507 32.6362C72.4389 32.0555 71.8996 31.3866 71.4329 30.6295C70.9766 29.8621 70.6085 28.9909 70.3285 28.0161C70.0588 27.0413 69.924 25.9472 69.924 24.7338C69.924 23.6553 70.0692 22.6234 70.3596 21.6382C70.6603 20.653 71.0855 19.7352 71.6352 18.8848C72.1848 18.0344 72.8485 17.2618 73.6263 16.567C74.4145 15.8722 75.2908 15.281 76.2552 14.7936C77.2197 14.3062 78.2671 13.9277 79.3975 13.6581C80.5279 13.3884 81.7154 13.2536 82.9598 13.2536C84.0384 13.2536 85.0806 13.3884 86.0866 13.6581C87.1029 13.9173 88.0518 14.2907 88.9333 14.7781C89.8148 15.2551 90.6185 15.8307 91.3444 16.5048C92.0807 17.1789 92.7134 17.9307 93.2422 18.7604C93.7711 19.59 94.1808 20.4871 94.4712 21.4515C94.7615 22.4056 94.9067 23.4012 94.9067 24.4383C94.9067 25.4131 94.7667 26.3827 94.4867 27.3472C94.2067 28.3013 93.8023 29.2191 93.2734 30.1006C92.7445 30.9717 92.1015 31.7806 91.3444 32.5273C90.5978 33.274 89.7577 33.9273 88.8244 34.4874C87.891 35.037 86.8695 35.4674 85.7599 35.7785C84.6502 36.0896 83.4784 36.2452 82.2443 36.2452ZM74.4974 24.1583C74.4974 24.9983 74.5804 25.8383 74.7463 26.6783C74.9226 27.5183 75.1767 28.3272 75.5086 29.105C75.8404 29.8828 76.2501 30.6139 76.7375 31.2984C77.2249 31.9725 77.7797 32.5636 78.402 33.0718C79.0242 33.5696 79.7138 33.9636 80.4709 34.254C81.2383 34.534 82.068 34.674 82.9598 34.674C84.2147 34.674 85.3036 34.4096 86.2266 33.8807C87.1495 33.3414 87.9118 32.631 88.5133 31.7495C89.1251 30.868 89.5763 29.8569 89.8666 28.7161C90.1674 27.565 90.3177 26.3776 90.3177 25.1538C90.3177 24.262 90.2296 23.3908 90.0533 22.5405C89.8874 21.6797 89.6385 20.8656 89.3066 20.0982C88.9851 19.3204 88.5807 18.61 88.0933 17.967C87.6162 17.3137 87.0614 16.7485 86.4288 16.2714C85.8065 15.7944 85.1117 15.4262 84.3443 15.167C83.5872 14.8973 82.7628 14.7625 81.8709 14.7625C81.0724 14.7625 80.3361 14.887 79.662 15.1359C78.9879 15.3848 78.376 15.727 77.8264 16.1625C77.2871 16.5877 76.8101 17.1011 76.3953 17.7026C75.9804 18.2937 75.633 18.9367 75.353 19.6315C75.073 20.3263 74.8604 21.0626 74.7152 21.8404C74.57 22.6079 74.4974 23.3805 74.4974 24.1583Z"
        fill="#E01515" />
    <path fill-rule="evenodd" clip-rule="evenodd"
        d="M199.558 0.442478H0.442478V47.7876H199.558V0.442478ZM0 0V48.2301H200V0H0Z" fill="white" />
    <circle cx="5.30971" cy="5.75221" r="1.76991" fill="white" />
    <circle cx="5.30971" cy="42.9204" r="1.76991" fill="white" />
    <circle cx="194.69" cy="5.75221" r="1.76991" fill="white" />
    <circle cx="194.69" cy="42.9204" r="1.76991" fill="white" />
</svg>