<svg width="16" height="16" viewBox="0 0 16 16" fill="none" xmlns="http://www.w3.org/2000/svg">
    <path fill-rule="evenodd" clip-rule="evenodd"
        d="M10.5 5.9999C10.5 7.19311 10.026 8.33744 9.18228 9.18117C8.33855 10.0249 7.19421 10.4989 6.001 10.4989C4.80779 10.4989 3.66346 10.0249 2.81973 9.18117C1.976 8.33744 1.502 7.19311 1.502 5.9999C1.502 4.80669 1.976 3.66235 2.81973 2.81862C3.66346 1.9749 4.80779 1.5009 6.001 1.5009C7.19421 1.5009 8.33855 1.9749 9.18228 2.81862C10.026 3.66235 10.5 4.80669 10.5 5.9999V5.9999ZM9.68 10.7399C8.47438 11.6759 6.95737 12.1172 5.4378 11.974C3.91824 11.8309 2.51035 11.114 1.50075 9.96929C0.491159 8.82461 -0.0442451 7.3382 0.00353906 5.81265C0.0513232 4.2871 0.678703 2.8371 1.75796 1.75785C2.83721 0.678596 4.28721 0.0512164 5.81275 0.00343225C7.3383 -0.0443519 8.82472 0.491052 9.9694 1.50065C11.1141 2.51024 11.831 3.91813 11.9741 5.4377C12.1173 6.95726 11.676 8.47427 10.74 9.6799L13.78 12.7199C13.8537 12.7886 13.9128 12.8714 13.9538 12.9634C13.9948 13.0554 14.0168 13.1547 14.0186 13.2554C14.0204 13.3561 14.0018 13.4561 13.9641 13.5495C13.9264 13.6429 13.8703 13.7277 13.799 13.7989C13.7278 13.8702 13.643 13.9263 13.5496 13.964C13.4562 14.0017 13.3562 14.0203 13.2555 14.0185C13.1548 14.0167 13.0555 13.9947 12.9635 13.9537C12.8715 13.9127 12.7887 13.8536 12.72 13.7799L9.68 10.7399V10.7399Z"
        fill="#dc3545" />
</svg>